<?xml version="1.0" encoding="utf-8"?>
<!-- Generator: Adobe Illustrator 23.0.5, SVG Export Plug-In . SVG Version: 6.00 Build 0)  -->
<svg version="1.1" id="Capa_1" xmlns="http://www.w3.org/2000/svg" xmlns:xlink="http://www.w3.org/1999/xlink" x="0px" y="0px"
	 viewBox="0 0 76 76" style="enable-background:new 0 0 76 76;" xml:space="preserve">
<style type="text/css">
	.st0{fill:#D2A84E;stroke:#D2A84E;stroke-width:2;stroke-miterlimit:10;}
</style>
<path id="Down_Arrow" class="st0" d="M55.4,33.1L39,49.6c-0.4,0.4-0.9,0.6-1.4,0.6c-0.5,0-1-0.2-1.4-0.6L20.6,33.9
	c-0.8-0.8-0.8-1.9,0-2.7c0.8-0.8,1.9-0.8,2.7,0l14.3,14.3l15.1-15.1c0.8-0.8,1.9-0.8,2.7,0C56.2,31.1,56.2,32.3,55.4,33.1z M75,38
	c0,20.5-16.6,37-37,37S1,58.5,1,38S17.5,1,38,1S75,17.5,75,38z M71.1,38C71.1,19.7,56.3,4.9,38,4.9S4.9,19.7,4.9,38
	S19.7,71.1,38,71.1S71.1,56.3,71.1,38z"/>
</svg>
