<?xml version="1.0" encoding="utf-8"?>
<!-- Generator: Adobe Illustrator 23.0.5, SVG Export Plug-In . SVG Version: 6.00 Build 0)  -->
<svg version="1.1" id="Layer_1" xmlns="http://www.w3.org/2000/svg" xmlns:xlink="http://www.w3.org/1999/xlink" x="0px" y="0px"
	 viewBox="0 0 434 434" style="enable-background:new 0 0 434 434;" xml:space="preserve">
<style type="text/css">
	.st0{fill:#FFFFFF;}
	.st1{fill:#FF451A;}
</style>
<path class="st0" d="M432.5,210.9C400.3,147.2,309.6,101,217,101S33.7,147.2,1.5,210.9c-2,3.9-2,8.5,0,12.3
	C33.7,286.9,124.4,333.1,217,333.1c73.2,0,148.8-28.4,187.9-70.6c5.1-5.5,4.8-14.2-0.7-19.3c-5.5-5.2-14.2-4.8-19.3,0.7
	c-18,19.4-46.1,35.7-78.3,46.7c16.5-20,26.4-45.6,26.4-73.5c0-27.4-9.6-52.6-25.5-72.4c45.8,16.8,83.7,45.1,100.7,78.6
	c3.4,6.7,11.6,9.4,18.4,6C433.2,225.8,435.9,217.6,432.5,210.9z M29.2,217.1c18.3-30.8,54.3-56.6,97.3-72.4
	c-15.9,19.9-25.5,45-25.5,72.4s9.6,52.5,25.5,72.4C83.6,273.7,47.5,247.8,29.2,217.1z M305.7,217.1c0,48.9-39.8,88.7-88.7,88.7
	s-88.7-39.8-88.7-88.7s39.8-88.7,88.7-88.7S305.7,168.1,305.7,217.1z"/>
<path class="st0" d="M217,271.7c30.2,0,54.6-24.4,54.6-54.6c0-30.2-24.4-54.6-54.6-54.6c-6.9,0-13.4,1.4-19.5,3.8
	c3.6,4.6,5.9,10.4,5.9,16.7c0,15.1-12.2,27.3-27.3,27.3c-4.6,0-8.8-1.2-12.6-3.2c-0.6,3.3-1,6.6-1,10.1
	C162.4,247.2,186.8,271.7,217,271.7z"/>
<path class="st1" d="M66.9,415c-3.1,0-6.3-1.1-8.8-3.3c-5.7-4.9-6.4-13.5-1.5-19.2L370.4,24c4.9-5.7,13.5-6.4,19.2-1.5
	c5.7,4.9,6.4,13.5,1.5,19.2L77.3,410.2C74.6,413.3,70.7,415,66.9,415z"/>
</svg>
