<svg width="800" height="618" viewBox="0 0 800 618" fill="none" xmlns="http://www.w3.org/2000/svg">
<g id="DevRyanLogo">
<rect id="Shadow" y="18" width="800" height="600" rx="50" fill="#4E6C8B"/>
<rect id="Body" width="800" height="600" rx="50" fill="#618BB5"/>
<path id="Toolbar" d="M2.5 20C2.5 10.335 10.335 2.5 20 2.5H780C789.665 2.5 797.5 10.335 797.5 20V112.5H2.5V20Z" fill="#577CA2" stroke="#425E7A" stroke-width="5"/>
<circle id="ExitButton" cx="34.5" cy="35" r="19.5" fill="#425E7A"/>
<path id="DEV" d="M181.075 291.5V170.641H209.879C223.99 170.641 234.947 175.068 242.75 183.922C250.553 192.721 254.454 205.117 254.454 221.109V241.363C254.454 257.356 250.497 269.724 242.584 278.468C234.671 287.156 223.188 291.5 208.136 291.5H181.075ZM196.266 183.756V278.468H208.468C219.148 278.468 226.951 275.424 231.876 269.337C236.801 263.194 239.319 254.119 239.43 242.11V220.694C239.43 207.966 236.967 198.642 232.042 192.721C227.172 186.744 219.785 183.756 209.879 183.756H196.266ZM336.134 235.636H293.385V278.468H343.189V291.5H278.194V170.641H342.359V183.756H293.385V222.604H336.134V235.636ZM397.228 268.175L424.869 170.641H441.554L403.951 291.5H390.67L353.15 170.641H369.752L397.228 268.175Z" fill="white"/>
<path id="RYAN" d="M226.301 448.48H201.301V506H183.332V363.812H223.176C237.108 363.812 247.655 367.458 254.816 374.75C261.978 381.977 265.559 392.589 265.559 406.586C265.559 415.375 263.605 423.057 259.699 429.633C255.858 436.143 250.389 441.059 243.293 444.379L270.832 504.828V506H251.594L226.301 448.48ZM201.301 433.148H222.98C230.467 433.148 236.424 430.74 240.852 425.922C245.344 421.104 247.59 414.659 247.59 406.586C247.59 388.357 239.322 379.242 222.785 379.242H201.301V433.148ZM321.906 435.199L351.008 363.812H371.223L330.793 452.973V506H312.922V452.973L272.492 363.812H292.805L321.906 435.199ZM446.906 468.891H398.859L387.824 506H369.465L415.266 363.812H430.598L476.496 506H458.137L446.906 468.891ZM403.547 453.461H442.316L422.883 388.812L403.547 453.461ZM588.703 506H570.734L513.801 396.43V506H495.832V363.812H513.801L570.93 473.871V363.812H588.703V506Z" fill="white"/>
<path id="Cursor" d="M81.2148 227.926L28.2852 202.73V184.176L98.5977 221.09V235.348L28.2852 272.359V253.609L81.2148 227.926Z" fill="#D2E9FF"/>
</g>
</svg>
