<?xml version="1.0" encoding="utf-8"?>
<!-- Generator: Adobe Illustrator 23.0.5, SVG Export Plug-In . SVG Version: 6.00 Build 0)  -->
<svg version="1.1" id="Layer_1" xmlns="http://www.w3.org/2000/svg" xmlns:xlink="http://www.w3.org/1999/xlink" x="0px" y="0px"
	 viewBox="0 0 32 32" style="enable-background:new 0 0 32 32;" xml:space="preserve">
<style type="text/css">
	.st0{fill:#FFFFFF;}
</style>
<path class="st0" d="M27.7,5c-2.4,0-4.4,2-4.4,4.4c0,1.6,0.9,3.1,2.2,3.8v0.6c0,0,0,4.4-4.4,4.4c-1.8,0-3.3,0.4-4.4,1V8.8
	C18.1,8,18.9,6.6,18.9,5c0-2.4-2-4.4-4.4-4.4s-4.4,2-4.4,4.4c0,1.6,0.8,3,2.2,3.8v14.5c-1.4,0.8-2.2,2.2-2.2,3.8
	c0,2.4,2,4.4,4.4,4.4s4.4-2,4.4-4.4c0-1.2-0.5-2.2-1.2-3c0.6-0.8,1.7-1.4,3.4-1.4c8.8,0,8.9-8.9,8.9-8.9v-0.6
	c1.4-0.8,2.2-2.2,2.2-3.8C32.1,7,30.1,5,27.7,5L27.7,5z M14.3,2.8c1.2,0,2.2,1,2.2,2.2s-1,2.2-2.2,2.2s-2.2-1-2.2-2.2
	S13.1,2.8,14.3,2.8z M14.3,29.4c-1.2,0-2.2-1-2.2-2.2s1-2.2,2.2-2.2s2.2,1,2.2,2.2C16.6,28.4,15.6,29.4,14.3,29.4
	C14.4,29.4,14.3,29.4,14.3,29.4z M27.7,11.7c-1.2,0-2.2-1-2.2-2.2s1-2.2,2.2-2.2s2.2,1,2.2,2.2S28.9,11.7,27.7,11.7z"/>
</svg>
