<?xml version="1.0" encoding="utf-8"?>
<!-- Generator: Adobe Illustrator 23.0.5, SVG Export Plug-In . SVG Version: 6.00 Build 0)  -->
<svg version="1.1" id="Layer_1" xmlns="http://www.w3.org/2000/svg" xmlns:xlink="http://www.w3.org/1999/xlink" x="0px" y="0px"
	 viewBox="0 0 32 32" style="enable-background:new 0 0 32 32;" xml:space="preserve">
<style type="text/css">
	.st0{fill:#FFFFFF;}
</style>
<path class="st0" d="M24.7,5c-2.4,0-4.4,2-4.4,4.4c0,1.6,0.9,3.1,2.2,3.8v0.6c0,0,0,4.4-4.4,4.4c-1.8,0-3.3,0.4-4.4,1V8.8
	C15.1,8,15.9,6.6,15.9,5c0-2.4-2-4.4-4.4-4.4S7.1,2.6,7.1,5c0,1.6,0.8,3,2.2,3.8v14.5c-1.4,0.8-2.2,2.2-2.2,3.8c0,2.4,2,4.4,4.4,4.4
	s4.4-2,4.4-4.4c0-1.2-0.5-2.2-1.2-3c0.6-0.8,1.7-1.4,3.4-1.4c8.8,0,8.9-8.9,8.9-8.9v-0.6c1.4-0.8,2.2-2.2,2.2-3.8
	C29.1,7,27.1,5,24.7,5L24.7,5z M11.3,2.8c1.2,0,2.2,1,2.2,2.2s-1,2.2-2.2,2.2S9.1,6.2,9.1,5S10.1,2.8,11.3,2.8z M11.3,29.4
	c-1.2,0-2.2-1-2.2-2.2s1-2.2,2.2-2.2s2.2,1,2.2,2.2C13.6,28.4,12.6,29.4,11.3,29.4C11.4,29.4,11.3,29.4,11.3,29.4z M24.7,11.7
	c-1.2,0-2.2-1-2.2-2.2s1-2.2,2.2-2.2s2.2,1,2.2,2.2S25.9,11.7,24.7,11.7z"/>
</svg>
