<svg height="434pt" viewBox="0 -19 434.16741 434" width="434pt" xmlns="http://www.w3.org/2000/svg"><path d="m432.695312 191.882812c-32.253906-63.664062-122.933593-109.878906-215.613281-109.878906-92.679687 0-183.359375 46.214844-215.613281 109.878906-1.957031 3.878907-1.957031 8.46875 0 12.347657 32.253906 63.667969 122.933594 109.882812 215.613281 109.882812 73.269531 0 148.828125-28.375 188.015625-70.585937 5.132813-5.535156 4.8125-14.175782-.707031-19.296875-5.519531-5.15625-14.1875-4.824219-19.296875.707031-18.039062 19.4375-46.164062 35.6875-78.328125 46.675781 16.464844-20.039062 26.371094-45.660156 26.371094-73.554687 0-27.402344-9.601563-52.578125-25.546875-72.453125 45.808594 16.777343 83.777344 45.136719 100.730468 78.625 3.414063 6.707031 11.574219 9.414062 18.363282 6.011719 6.71875-3.410157 9.414062-11.625 6.011718-18.359376zm-403.46875 6.175782c18.292969-30.773438 54.359376-56.640625 97.292969-72.378906-15.910156 19.863281-25.488281 45.007812-25.488281 72.378906s9.578125 52.515625 25.488281 72.378906c-42.933593-15.742188-79-41.605469-97.292969-72.378906zm276.601563 0c0 48.933594-39.8125 88.746094-88.746094 88.746094-48.933593 0-88.746093-39.8125-88.746093-88.746094s39.8125-88.746094 88.746093-88.746094c48.933594 0 88.746094 39.8125 88.746094 88.746094zm0 0" fill="#212121"/><path d="m217.082031 252.671875c30.164063 0 54.613281-24.453125 54.613281-54.613281 0-30.164063-24.449218-54.613282-54.613281-54.613282-6.902343 0-13.441406 1.417969-19.519531 3.753907 3.621094 4.632812 5.867188 10.390625 5.867188 16.726562 0 15.078125-12.226563 27.304688-27.308594 27.304688-4.585938 0-8.84375-1.238281-12.636719-3.234375-.613281 3.269531-1.015625 6.617187-1.015625 10.0625 0 30.160156 24.449219 54.613281 54.613281 54.613281zm0 0" fill="#212121"/><path d="m66.894531 396.03125c-3.132812 0-6.277343-1.066406-8.851562-3.253906-5.746094-4.890625-6.429688-13.519532-1.546875-19.25l314.027344-368.640625c4.90625-5.746094 13.503906-6.429688 19.25-1.546875 5.75 4.894531 6.429687 13.519531 1.546874 19.253906l-314.023437 368.640625c-2.707031 3.167969-6.546875 4.796875-10.402344 4.796875zm0 0" fill="#ff451a"/></svg>